<svg fill="none" height="150" viewBox="0 0 150 150" width="150" xmlns="http://www.w3.org/2000/svg">
    <g clip-path="url(#clip0_782_75)">
        <path clip-rule="evenodd" d="M95.8339 43.8199C89.667 39.6994 82.4168 37.5 75 37.5V0C89.8335 0 104.334 4.39868 116.668 12.6398C129.002 20.8809 138.614 32.5943 144.291 46.2986C149.967 60.003 151.453 75.0833 148.559 89.6318C145.665 104.18 138.522 117.544 128.033 128.033C117.544 138.522 104.18 145.665 89.6318 148.559C75.0833 151.453 60.003 149.967 46.2986 144.291C32.5943 138.614 20.8809 129.002 12.6398 116.668C4.39868 104.334 0 89.8335 0 75H37.5C37.5 82.4168 39.6994 89.667 43.8199 95.8339C47.9404 102.001 53.7971 106.807 60.6495 109.646C67.5015 112.484 75.0416 113.226 82.3159 111.779C89.5901 110.333 96.2719 106.761 101.517 101.517C106.761 96.2719 110.333 89.5901 111.779 82.3159C113.226 75.0416 112.484 67.5015 109.646 60.6495C106.807 53.7971 102.001 47.9404 95.8339 43.8199Z"
            fill="#007DFC"
            fill-rule="evenodd" />
        <path clip-rule="evenodd" d="M37.5 1.62422e-05C37.5 4.92459 36.53 9.80094 34.6455 14.3506C32.7609 18.9004 29.9987 23.0343 26.5165 26.5165C23.0343 29.9987 18.9004 32.7609 14.3506 34.6455C9.80091 36.53 4.92456 37.5 1.63916e-06 37.5L0 75C9.84913 75 19.6018 73.0601 28.7013 69.291C37.8007 65.5219 46.0687 59.9974 53.0329 53.0329C59.9974 46.0688 65.5219 37.8008 69.291 28.7013C73.0601 19.6018 75 9.84913 75 0L37.5 1.62422e-05Z"
            fill="#007DFC"
            fill-rule="evenodd" />
    </g>
    <defs>
        <clipPath id="clip0_782_75">
            <rect fill="white" height="150" width="150" />
        </clipPath>
    </defs>
</svg>
