<svg fill="none" height="195" viewBox="0 0 261 195" width="261" xmlns="http://www.w3.org/2000/svg">
    <path d="M260.45 170.543H0V170.673H260.45V170.543Z" fill="#EBEBEB" />
    <path d="M164.433 174.09H151.17V174.221H164.433V174.09Z" fill="#EBEBEB" />
    <path d="M237.239 176.908H205.813V177.038H237.239V176.908Z" fill="#EBEBEB" />
    <path d="M148.347 174.153H115.879V174.283H148.347V174.153Z" fill="#EBEBEB" />
    <path d="M94.8248 178.049H88.0322V178.18H94.8248V178.049Z" fill="#EBEBEB" />
    <path d="M132.356 178.049H101.425V178.18H132.356V178.049Z" fill="#EBEBEB" />
    <path d="M47.3553 175.851H27.3267V175.981H47.3553V175.851Z" fill="#EBEBEB" />
    <path
        d="M123.454 147.311H22.8729C22.085 147.309 21.3298 146.995 20.7731 146.438C20.2165 145.88 19.9038 145.124 19.9038 144.336V2.9483C19.9107 2.16488 20.2263 1.4158 20.7823 0.863767C21.3382 0.311737 22.0895 0.00134204 22.8729 0H123.454C124.243 0 124.999 0.313368 125.557 0.871165C126.115 1.42896 126.428 2.1855 126.428 2.97434V144.336C126.428 145.125 126.115 145.882 125.557 146.44C124.999 146.997 124.243 147.311 123.454 147.311ZM22.8729 0.104181C22.1195 0.10556 21.3975 0.405816 20.8652 0.939042C20.333 1.47227 20.034 2.19489 20.034 2.9483V144.336C20.034 145.09 20.333 145.812 20.8652 146.346C21.3975 146.879 22.1195 147.179 22.8729 147.181H123.454C124.208 147.179 124.93 146.879 125.463 146.346C125.996 145.813 126.296 145.09 126.298 144.336V2.9483C126.296 2.19441 125.996 1.4718 125.463 0.938724C124.93 0.405646 124.208 0.105558 123.454 0.104181H22.8729Z"
        fill="#EBEBEB" />
    <path
        d="M236.13 147.311H135.544C134.755 147.309 134 146.996 133.442 146.438C132.885 145.881 132.571 145.125 132.569 144.336V2.9483C132.578 2.1644 132.894 1.41533 133.451 0.863441C134.008 0.311555 134.76 0.00132741 135.544 0H236.13C236.912 0.00271103 237.662 0.313712 238.217 0.865595C238.772 1.41748 239.087 2.16578 239.094 2.9483V144.336C239.094 145.123 238.782 145.878 238.226 146.436C237.671 146.993 236.917 147.308 236.13 147.311ZM135.544 0.104181C134.79 0.105558 134.067 0.405646 133.534 0.938724C133.001 1.4718 132.701 2.19441 132.7 2.9483V144.336C132.701 145.09 133.001 145.813 133.534 146.346C134.067 146.879 134.79 147.179 135.544 147.181H236.13C236.884 147.179 237.606 146.879 238.139 146.346C238.672 145.813 238.972 145.09 238.974 144.336V2.9483C238.972 2.19441 238.672 1.4718 238.139 0.938724C237.606 0.405646 236.884 0.105558 236.13 0.104181H135.544Z"
        fill="#EBEBEB" />
    <path d="M102.076 125.365H67.4879L65.3887 101.144H99.9765L102.076 125.365Z" fill="#E6E6E6" />
    <path d="M103.868 125.365H69.2799L67.1807 101.144H101.768L103.868 125.365Z" fill="#F0F0F0" />
    <path d="M74.0094 120.161L72.853 106.342H97.0384L98.1949 120.161H74.0094Z" fill="white" />
    <path d="M109.853 125.365H105.795V170.543H109.853V125.365Z" fill="#E6E6E6" />
    <path d="M111.134 125.365H108.316V170.543H111.134V125.365Z" fill="#F0F0F0" />
    <path d="M71.8531 130.35H111.134V125.365H71.8531V130.35Z" fill="#F0F0F0" />
    <path d="M73.2385 130.35H69.1807V170.543H73.2385V130.35Z" fill="#E6E6E6" />
    <path d="M74.5202 130.35H71.7021V170.543H74.5202V130.35Z" fill="#F0F0F0" />
    <path d="M44.3547 130.35H40.2969V170.543H44.3547V130.35Z" fill="#E6E6E6" />
    <path d="M45.6359 130.35H42.8179V170.543H45.6359V130.35Z" fill="#F0F0F0" />
    <path d="M84.1726 130.35H80.1147V170.543H84.1726V130.35Z" fill="#E6E6E6" />
    <path d="M85.4484 130.35H82.6304V170.543H85.4484V130.35Z" fill="#F0F0F0" />
    <path d="M71.853 125.365H40.2969V130.35H71.853V125.365Z" fill="#E6E6E6" />
    <path d="M189.525 12.7153H67.4619V80.6721H189.525V12.7153Z" fill="#E0E0E0" />
    <path d="M196.229 12.7153H68.0767V80.6721H196.229V12.7153Z" fill="#F5F5F5" />
    <path d="M194.135 78.5778V14.8091L70.1708 14.8091V78.5778H194.135Z" fill="white" />
    <path d="M120.365 78.5778L143.769 14.8091H105.144L81.7397 78.5778H120.365Z" fill="#F5F5F5" />
    <path d="M157.541 78.5778L180.945 14.8091H151.806L128.402 78.5778H157.541Z" fill="#F5F5F5" />
    <path d="M228.212 105.639H217.835V170.543H228.212V105.639Z" fill="#E6E6E6" />
    <path d="M225.482 170.543H228.212V165.547H222.623L225.482 170.543Z" fill="#FAFAFA" />
    <path d="M132.543 105.639H122.167V170.543H132.543V105.639Z" fill="#E6E6E6" />
    <path d="M228.212 105.639H130.163V169.194H228.212V105.639Z" fill="#FAFAFA" />
    <path
        d="M226.358 126.147H132.022V108.196H226.358V126.147ZM132.543 125.626H225.837V108.717H132.543V125.626Z"
        fill="#E6E6E6" />
    <path
        d="M209.751 116.911H150.457C147.707 116.911 145.055 114.692 143.164 110.817L142.987 110.447H217.216L217.039 110.817C215.132 114.692 212.528 116.911 209.751 116.911ZM143.842 110.952C145.602 114.406 148.009 116.375 150.457 116.375H209.751C212.21 116.375 214.606 114.406 216.367 110.952H143.842Z"
        fill="#E6E6E6" />
    <path d="M132.892 170.543H130.163V165.547H135.752L132.892 170.543Z" fill="#FAFAFA" />
    <path
        d="M226.358 146.373H132.022V128.444H226.358V146.373ZM132.543 145.852H225.837V128.965H132.543V145.852Z"
        fill="#E6E6E6" />
    <path
        d="M209.751 137.159H150.457C147.707 137.159 145.055 134.934 143.164 131.064L142.987 130.689H217.216L217.039 131.064C215.132 134.913 212.528 137.159 209.751 137.159ZM143.842 131.21C145.602 134.663 148.009 136.638 150.457 136.638H209.751C212.21 136.638 214.606 134.663 216.367 131.21H143.842Z"
        fill="#E6E6E6" />
    <path
        d="M226.358 166.636H132.022V148.686H226.358V166.636ZM132.543 166.115H225.837V149.207H132.543V166.115Z"
        fill="#E6E6E6" />
    <path
        d="M209.751 157.4H150.457C147.707 157.4 145.055 155.181 143.164 151.311L142.987 150.936H217.216L217.039 151.311C215.132 155.181 212.528 157.4 209.751 157.4ZM143.842 151.457C145.602 154.911 148.009 156.88 150.457 156.88H209.751C212.21 156.88 214.606 154.911 216.367 151.457H143.842Z"
        fill="#E6E6E6" />
    <path
        d="M63.0187 114.223V115.484H62.2166L61.5498 125.365H51.736L51.0745 115.484H50.2671V114.223H63.0187Z"
        fill="#E6E6E6" />
    <path
        d="M59.7892 89.7041C58.987 83.8179 51.0433 82.1406 40.9639 81.9219C31.3741 81.7187 28.3008 78.3276 28.3008 78.3276C28.3008 78.3276 28.332 92.0638 42.1515 97.0436C55.273 101.763 60.5966 95.6007 59.7892 89.7041Z"
        fill="#E6E6E6" />
    <path
        d="M54.8925 103.045C55.0592 100.628 58.9243 96.1792 68.2224 98.2003C74.942 99.664 77.4423 96.1792 77.4423 96.1792C77.4423 96.1792 76.8173 106.014 66.7118 108.967C57.1116 111.775 54.5956 107.306 54.8925 103.045Z"
        fill="#E6E6E6" />
    <path
        d="M57.0126 117.932C57.065 117.932 57.1168 117.922 57.1645 117.9C57.2122 117.878 57.2546 117.847 57.2887 117.807C57.9607 117.01 57.4085 115.103 56.648 112.462C55.6687 109.077 54.4498 104.857 55.4812 101.8C56.0529 100.184 56.7208 98.6051 57.4815 97.0698C58.94 93.9861 60.2006 91.3399 59.1483 88.5375C59.1319 88.4929 59.1068 88.452 59.0745 88.4172C59.0422 88.3824 59.0033 88.3543 58.9601 88.3346C58.9168 88.3149 58.8701 88.304 58.8226 88.3024C58.7752 88.3009 58.7278 88.3088 58.6834 88.3257C58.639 88.3425 58.5984 88.368 58.5639 88.4007C58.5294 88.4334 58.5017 88.4726 58.4825 88.516C58.4632 88.5594 58.4528 88.6063 58.4517 88.6538C58.4507 88.7013 58.4591 88.7485 58.4764 88.7927C59.4192 91.2878 58.2784 93.7048 56.8303 96.7677C56.06 98.3276 55.3817 99.9313 54.7988 101.57C53.6997 104.842 54.9499 109.181 55.9552 112.66C56.549 114.744 57.1637 116.828 56.7418 117.349C56.7083 117.384 56.6826 117.427 56.6665 117.473C56.6503 117.52 56.644 117.569 56.6479 117.618C56.6518 117.667 56.6659 117.715 56.6893 117.758C56.7126 117.801 56.7447 117.839 56.7835 117.869C56.85 117.917 56.9312 117.939 57.0126 117.932Z"
        fill="#E6E6E6" />
    <path
        d="M130.225 194.067C186.004 194.067 231.222 191.427 231.222 188.17C231.222 184.913 186.004 182.273 130.225 182.273C74.4456 182.273 29.2275 184.913 29.2275 188.17C29.2275 191.427 74.4456 194.067 130.225 194.067Z"
        fill="#F5F5F5" />
    <path d="M130.204 159.422H56.2364L52.189 40.4639H126.157L130.204 159.422Z" fill="#407BFF" />
    <path d="M133.897 155.729H59.9296L55.877 36.7705H129.845L133.897 155.729Z" fill="#407BFF" />
    <path d="M133.897 155.729H59.9296L55.877 36.7705H129.845L133.897 155.729Z" fill="white"
        opacity="0.3" />
    <path
        d="M109.114 85.7218C117.034 77.6653 116.697 64.4915 108.362 56.2974C100.026 48.1032 86.8484 47.9917 78.9286 56.0482C71.0087 64.1047 71.3456 77.2784 79.6812 85.4726C88.0167 93.6667 101.194 93.7783 109.114 85.7218Z"
        fill="#407BFF" />
    <path
        d="M111.197 70.8894C111.303 73.7239 110.685 76.5388 109.4 79.0675C108.013 81.7927 105.894 84.0774 103.281 85.6655C100.668 87.2536 97.6636 88.0822 94.6059 88.0583C91.4764 88.0414 88.4063 87.2018 85.7037 85.6237C83.0011 84.0457 80.761 81.7847 79.2081 79.0675C77.7602 76.5776 76.9513 73.768 76.8536 70.8894C76.7575 68.6574 77.1163 66.4291 77.908 64.34C78.6997 62.2509 79.9078 60.3446 81.4591 58.7368C83.0103 57.1291 84.8722 55.8535 86.9316 54.9876C88.9911 54.1216 91.2051 53.6835 93.4391 53.6997C98.0414 53.7322 102.454 55.5364 105.761 58.7375C109.068 61.9386 111.015 66.2906 111.197 70.8894Z"
        fill="white" />
    <path d="M109.389 79.0677C108.002 81.7928 105.883 84.0776 103.27 85.6657C100.657 87.2537 97.6533 88.0823 94.5956 88.0584C91.466 88.0415 88.396 87.202 85.6934 85.6239C82.9907 84.0459 80.7506 81.7848 79.1978 79.0677C83.6031 76.0642 88.8159 74.4677 94.1476 74.489C99.5653 74.5007 104.862 76.0919 109.389 79.0677Z"
        fill="#407BFF"
        opacity="0.6" />
    <path d="M99.373 70.4613C102.285 67.4988 102.161 62.6547 99.0963 59.6417C96.0313 56.6286 91.1858 56.5876 88.2735 59.55C85.3613 62.5125 85.4852 67.3566 88.5502 70.3697C91.6153 73.3827 96.4608 73.4238 99.373 70.4613Z"
        fill="#407BFF"
        opacity="0.6" />
    <path d="M119.036 112.65H71.8529L71.5352 103.274H118.718L119.036 112.65Z" fill="white" />
    <path d="M119.609 129.407H72.4208L72.103 120.031H119.291L119.609 129.407Z" fill="white" />
    <path
        d="M101.399 121.323L90.0273 122.886C89.9188 122.898 89.814 122.933 89.7196 122.988C89.6251 123.043 89.5431 123.116 89.4785 123.205C89.4139 123.293 89.3682 123.393 89.3444 123.5C89.3205 123.606 89.3189 123.717 89.3397 123.824L90.8347 131.444C90.8836 131.668 91.0145 131.865 91.2015 131.997C91.3885 132.13 91.6181 132.187 91.8453 132.158L103.217 130.595C103.325 130.582 103.429 130.546 103.523 130.49C103.617 130.435 103.698 130.36 103.762 130.272C103.826 130.184 103.871 130.083 103.895 129.976C103.918 129.87 103.92 129.76 103.899 129.653L102.409 122.032C102.36 121.809 102.229 121.612 102.042 121.481C101.855 121.349 101.625 121.293 101.399 121.323ZM98.1325 129.043L96.0489 129.319L95.8458 126.861C95.6311 126.768 95.4419 126.625 95.2941 126.443C95.1463 126.262 95.0443 126.048 94.9967 125.819C94.9584 125.641 94.9578 125.458 94.9949 125.28C95.032 125.103 95.1059 124.935 95.212 124.787C95.318 124.64 95.4538 124.517 95.6105 124.425C95.7673 124.334 95.9415 124.276 96.1218 124.256C96.4918 124.208 96.8662 124.301 97.171 124.516C97.4758 124.732 97.6888 125.053 97.7679 125.418C97.813 125.638 97.7992 125.866 97.7279 126.079C97.6565 126.292 97.5302 126.483 97.3616 126.631L98.1325 129.043Z"
        fill="#407BFF" />
    <path
        d="M100.273 120.911C100.072 120.937 99.869 120.887 99.7032 120.77C99.5375 120.653 99.4213 120.479 99.3774 120.281L99.2316 119.536C99.0234 118.52 98.4536 117.613 97.6279 116.985C96.8022 116.356 95.7767 116.049 94.7414 116.119C94.219 116.149 93.7091 116.291 93.2464 116.535C92.7837 116.779 92.379 117.12 92.0598 117.535C91.7406 117.95 91.5143 118.428 91.3964 118.938C91.2785 119.448 91.2717 119.977 91.3764 120.49L91.5431 121.349C91.5625 121.444 91.5618 121.543 91.5411 121.637C91.5203 121.732 91.48 121.822 91.4226 121.9C91.3652 121.979 91.2921 122.045 91.2079 122.093C91.1237 122.142 91.0303 122.172 90.9336 122.182C90.7322 122.211 90.5277 122.161 90.3613 122.044C90.195 121.927 90.0793 121.751 90.0377 121.552L89.897 120.828C89.754 120.151 89.7493 119.453 89.8831 118.774C90.0169 118.096 90.2866 117.451 90.6758 116.879C91.0651 116.308 91.5659 115.821 92.1482 115.447C92.7305 115.074 93.3822 114.822 94.0643 114.708C95.5431 114.459 97.0607 114.79 98.3022 115.631C99.5437 116.472 100.414 117.758 100.732 119.224L100.898 120.078C100.918 120.174 100.917 120.274 100.895 120.37C100.873 120.466 100.832 120.556 100.773 120.635C100.714 120.713 100.639 120.779 100.553 120.826C100.467 120.874 100.371 120.903 100.273 120.911Z"
        fill="#407BFF" />
    <path d="M111.822 142.54H81.104L80.9009 136.435H111.613L111.822 142.54Z" fill="#407BFF" />
    <path
        d="M97.002 107.962C97.0112 108.185 96.975 108.407 96.8958 108.615C96.8165 108.823 96.6958 109.013 96.5409 109.174C96.386 109.334 96.2002 109.461 95.9947 109.547C95.7893 109.634 95.5684 109.677 95.3455 109.676C94.8862 109.672 94.4458 109.492 94.1153 109.173C93.7847 108.854 93.5893 108.421 93.5693 107.962C93.5601 107.739 93.5962 107.517 93.6755 107.309C93.7547 107.1 93.8755 106.91 94.0304 106.75C94.1852 106.59 94.3711 106.463 94.5765 106.376C94.782 106.29 95.0029 106.246 95.2257 106.248C95.6854 106.25 96.1265 106.43 96.4574 106.749C96.7882 107.068 96.9832 107.503 97.002 107.962Z"
        fill="#263238" />
    <path
        d="M89.5949 107.962C89.6049 108.185 89.5692 108.407 89.4903 108.616C89.4113 108.825 89.2906 109.015 89.1355 109.175C88.9805 109.336 88.7944 109.463 88.5886 109.549C88.3827 109.635 88.1615 109.678 87.9385 109.676C87.4797 109.672 87.0399 109.492 86.7102 109.173C86.3805 108.854 86.1861 108.42 86.1674 107.962C86.1582 107.739 86.1944 107.517 86.2736 107.309C86.3529 107.1 86.4736 106.91 86.6285 106.75C86.7834 106.59 86.9692 106.463 87.1747 106.376C87.3802 106.29 87.601 106.246 87.8239 106.248C88.2831 106.25 88.7236 106.43 89.0536 106.749C89.3835 107.069 89.5775 107.503 89.5949 107.962Z"
        fill="#263238" />
    <path
        d="M82.2346 107.962C82.2438 108.185 82.2076 108.407 82.1284 108.615C82.0491 108.823 81.9284 109.013 81.7735 109.174C81.6186 109.334 81.4328 109.461 81.2273 109.547C81.0218 109.634 80.801 109.677 80.5781 109.676C80.119 109.673 79.6784 109.494 79.3484 109.174C79.0185 108.855 78.8245 108.421 78.8071 107.962C78.7979 107.739 78.834 107.517 78.9133 107.309C78.9925 107.1 79.1133 106.91 79.2682 106.75C79.423 106.59 79.6089 106.463 79.8143 106.376C80.0198 106.29 80.2407 106.246 80.4635 106.248C80.9227 106.25 81.3632 106.43 81.6932 106.749C82.0232 107.069 82.2171 107.503 82.2346 107.962Z"
        fill="#263238" />
    <path
        d="M104.383 107.962C104.392 108.185 104.356 108.407 104.277 108.615C104.198 108.823 104.077 109.013 103.922 109.174C103.767 109.334 103.581 109.461 103.376 109.547C103.17 109.634 102.95 109.677 102.727 109.676C102.267 109.673 101.827 109.494 101.497 109.174C101.167 108.855 100.973 108.421 100.956 107.962C100.948 107.74 100.985 107.519 101.065 107.312C101.146 107.104 101.267 106.916 101.423 106.757C101.578 106.598 101.764 106.473 101.969 106.388C102.175 106.303 102.395 106.261 102.617 106.264C103.073 106.267 103.51 106.445 103.838 106.761C104.167 107.077 104.362 107.507 104.383 107.962Z"
        fill="#263238" />
    <path
        d="M111.764 107.962C111.774 108.185 111.739 108.407 111.66 108.616C111.581 108.825 111.46 109.015 111.305 109.175C111.15 109.336 110.964 109.463 110.758 109.549C110.552 109.635 110.331 109.678 110.108 109.676C109.649 109.672 109.209 109.492 108.88 109.173C108.55 108.854 108.356 108.42 108.337 107.962C108.328 107.739 108.364 107.517 108.443 107.309C108.522 107.1 108.643 106.91 108.798 106.75C108.953 106.59 109.139 106.463 109.344 106.376C109.55 106.29 109.77 106.246 109.993 106.248C110.452 106.25 110.893 106.43 111.223 106.749C111.553 107.069 111.747 107.503 111.764 107.962Z"
        fill="#263238" />
    <path
        d="M173.934 62.1333C174.627 63.248 175.205 64.3107 175.799 65.4202C176.393 66.5297 176.929 67.6444 177.455 68.7852C178.529 71.0951 179.417 73.4866 180.112 75.9372C180.206 76.2445 180.273 76.5727 180.352 76.8904L180.466 77.3749L180.523 77.6145L180.591 78.0104C180.709 78.9084 180.654 79.8207 180.43 80.6982C180.07 82.0607 179.523 83.3668 178.804 84.5789C177.519 86.7817 175.965 88.8166 174.179 90.637L171.986 88.9805C173.087 86.957 174.066 84.8697 174.919 82.7297C175.298 81.7868 175.566 80.8025 175.716 79.797C175.763 79.49 175.749 79.1765 175.674 78.8751L175.465 78.2396C175.382 77.9791 175.304 77.7187 175.205 77.453C174.413 75.3041 173.496 73.203 172.46 71.1605C171.418 69.0769 170.298 66.9933 169.178 65.0035L173.934 62.1333Z"
        fill="#FF8B7B" />
    <path
        d="M172.543 88.2563L170.147 89.5221L172.897 92.7413C172.897 92.7413 174.616 91.5797 174.694 89.8086L172.543 88.2563Z"
        fill="#FF8B7B" />
    <path d="M166.933 91.5066L169.876 93.8455L172.897 92.7411L170.147 89.522L166.933 91.5066Z"
        fill="#FF8B7B" />
    <path
        d="M156.869 45.0894C156.812 45.3811 156.609 45.5842 156.421 45.5477C156.234 45.5113 156.124 45.2404 156.182 44.9539C156.239 44.6674 156.442 44.433 156.635 44.4955C156.828 44.558 156.927 44.7976 156.869 45.0894Z"
        fill="#263238" />
    <path
        d="M156.635 45.5894C156.11 46.4053 155.476 47.145 154.749 47.7876C154.921 47.9654 155.129 48.104 155.359 48.1939C155.589 48.2838 155.836 48.3229 156.083 48.3085L156.635 45.5894Z"
        fill="#FF5652" />
    <path
        d="M155.697 55.8097V52.3926L160.219 52.9135C160.219 52.9135 160.146 55.8514 157.614 56.7161L155.697 55.8097Z"
        fill="#FF8B7B" />
    <path d="M156.999 49.9336L160.182 50.8504L160.239 52.9392L155.718 52.3922L156.999 49.9336Z"
        fill="#FF8B7B" />
    <path d="M160.182 50.8504L156.999 49.9336L156.379 51.1212C156.413 52.0571 156.706 52.9652 157.224 53.7449C157.743 54.5247 158.467 55.1455 159.317 55.5385C159.864 54.7747 160.184 53.8717 160.239 52.934L160.182 50.8504Z"
        fill="black"
        opacity="0.2" />
    <path
        d="M158.255 43.6983C158.288 43.6974 158.321 43.6871 158.348 43.6685C158.376 43.65 158.398 43.624 158.412 43.5935C158.425 43.563 158.43 43.5292 158.425 43.4962C158.421 43.4631 158.407 43.4321 158.385 43.4066C158.202 43.2 157.972 43.0402 157.715 42.9405C157.458 42.8408 157.18 42.8041 156.906 42.8336C156.861 42.8413 156.821 42.8664 156.794 42.9035C156.768 42.9406 156.758 42.9867 156.765 43.0316C156.773 43.0768 156.798 43.1172 156.835 43.1444C156.872 43.1716 156.918 43.1835 156.963 43.1774C157.18 43.1561 157.4 43.187 157.603 43.2677C157.806 43.3483 157.986 43.4763 158.13 43.641C158.146 43.6584 158.165 43.6725 158.187 43.6823C158.208 43.6921 158.231 43.6976 158.255 43.6983Z"
        fill="#263238" />
    <path
        d="M164.912 50.3608C164.391 53.0435 164.068 56.7575 165.953 58.5442C165.953 58.5442 165.224 61.2633 160.224 61.2633C154.749 61.2633 157.593 58.8776 157.593 58.8776C159.869 58.1691 159.848 55.5803 159.328 53.4967L164.912 50.3608Z"
        fill="#FF8B7B" />
    <path
        d="M166.969 60.3359C167.459 59.6483 167.438 57.4657 166.917 57.0803C166.079 56.4604 162.479 56.3145 157.64 57.4293C158.161 59.5441 157.041 60.6484 157.041 60.6484L166.969 60.3359Z"
        fill="#407BFF" />
    <path
        d="M183.253 184.003C183.104 184.055 182.947 184.078 182.789 184.069C182.632 184.06 182.478 184.02 182.336 183.951C182.282 183.901 182.245 183.836 182.231 183.764C182.216 183.692 182.223 183.617 182.253 183.55C182.269 183.494 182.298 183.441 182.336 183.397C182.375 183.353 182.423 183.318 182.477 183.295C182.972 183.055 184.107 183.519 184.159 183.539C184.175 183.546 184.188 183.557 184.197 183.571C184.207 183.584 184.212 183.601 184.211 183.618C184.211 183.634 184.207 183.651 184.199 183.665C184.19 183.68 184.179 183.692 184.164 183.701C183.871 183.83 183.566 183.931 183.253 184.003ZM182.654 183.414C182.619 183.423 182.586 183.435 182.555 183.451C182.522 183.463 182.493 183.482 182.47 183.508C182.446 183.533 182.429 183.563 182.419 183.597C182.373 183.753 182.419 183.805 182.451 183.821C182.649 183.987 183.378 183.821 183.894 183.628C183.501 183.466 183.078 183.393 182.654 183.414Z"
        fill="#407BFF" />
    <path
        d="M184.143 183.706H184.102C183.685 183.586 182.799 182.956 182.789 182.545C182.789 182.479 182.811 182.416 182.851 182.364C182.892 182.313 182.949 182.278 183.013 182.263C183.075 182.24 183.141 182.231 183.207 182.236C183.272 182.242 183.336 182.262 183.393 182.295C183.883 182.545 184.196 183.555 184.206 183.602C184.213 183.615 184.217 183.629 184.217 183.644C184.217 183.658 184.213 183.673 184.206 183.685C184.198 183.693 184.188 183.7 184.177 183.703C184.166 183.707 184.155 183.708 184.143 183.706ZM183.102 182.409H183.06C182.956 182.446 182.956 182.498 182.956 182.524C182.956 182.769 183.55 183.263 183.998 183.461C183.888 183.17 183.649 182.591 183.331 182.42C183.26 182.387 183.18 182.384 183.107 182.409H183.102Z"
        fill="#407BFF" />
    <path
        d="M156.197 184.618C155.728 184.618 155.275 184.55 155.124 184.342C155.085 184.286 155.063 184.22 155.063 184.151C155.063 184.083 155.085 184.017 155.124 183.961C155.154 183.91 155.194 183.866 155.241 183.831C155.289 183.796 155.343 183.771 155.4 183.758C156.01 183.591 157.291 184.321 157.343 184.352C157.359 184.36 157.372 184.373 157.38 184.389C157.387 184.405 157.389 184.423 157.385 184.441C157.383 184.458 157.375 184.475 157.363 184.488C157.351 184.501 157.335 184.51 157.317 184.513C156.948 184.581 156.573 184.616 156.197 184.618ZM155.619 183.904C155.564 183.895 155.508 183.895 155.452 183.904C155.417 183.911 155.384 183.926 155.354 183.946C155.325 183.967 155.299 183.993 155.28 184.024C155.218 184.133 155.244 184.185 155.28 184.217C155.452 184.456 156.374 184.461 157.057 184.362C156.611 184.119 156.123 183.963 155.619 183.904Z"
        fill="#407BFF" />
    <path
        d="M157.312 184.514H157.275C156.833 184.316 155.957 183.524 156.025 183.107C156.025 183.008 156.109 182.888 156.348 182.868C156.434 182.857 156.521 182.865 156.603 182.89C156.685 182.915 156.762 182.957 156.827 183.013C157.161 183.413 157.362 183.906 157.4 184.425C157.4 184.44 157.397 184.455 157.391 184.468C157.384 184.482 157.375 184.494 157.364 184.503C157.348 184.511 157.33 184.515 157.312 184.514ZM156.416 183.029H156.364C156.208 183.029 156.197 183.102 156.197 183.123C156.155 183.373 156.749 183.998 157.202 184.269C157.163 183.851 156.993 183.456 156.718 183.138C156.632 183.065 156.523 183.027 156.411 183.029H156.416Z"
        fill="#407BFF" />
    <path d="M161.333 184.43H157.671L157.307 175.945H160.969L161.333 184.43Z" fill="#FF8B7B" />
    <path d="M188.227 182.732L184.649 183.508L181.049 175.606L184.633 174.83L188.227 182.732Z"
        fill="#FF8B7B" />
    <path
        d="M184.3 183.149L188.326 182.279C188.397 182.264 188.47 182.273 188.534 182.306C188.599 182.338 188.65 182.391 188.68 182.456L190.076 185.488C190.114 185.561 190.133 185.642 190.133 185.724C190.132 185.807 190.113 185.888 190.075 185.961C190.037 186.034 189.983 186.097 189.916 186.146C189.85 186.194 189.772 186.225 189.691 186.238C188.285 186.514 187.581 186.582 185.816 186.962C184.727 187.201 182.268 187.8 180.763 188.123C179.257 188.446 178.742 187.003 179.33 186.738C181.961 185.535 183.055 184.477 183.768 183.493C183.897 183.317 184.086 183.195 184.3 183.149Z"
        fill="#263238" />
    <path
        d="M157.697 184.003H161.698C161.77 184.003 161.841 184.028 161.898 184.074C161.954 184.119 161.994 184.182 162.01 184.253L162.734 187.509C162.756 187.587 162.758 187.67 162.742 187.75C162.725 187.829 162.69 187.904 162.64 187.968C162.589 188.032 162.524 188.083 162.45 188.117C162.376 188.151 162.295 188.168 162.214 188.165C160.771 188.139 158.687 188.056 156.874 188.056C154.749 188.056 152.921 188.17 150.431 188.17C148.925 188.17 148.509 186.649 149.139 186.508C152.004 185.883 154.348 185.816 156.822 184.289C157.082 184.115 157.385 184.016 157.697 184.003Z"
        fill="#263238" />
    <path
        d="M172.506 59.3827C175.939 60.1693 178.757 68.936 178.757 68.936L171.897 74.1815C170.116 72.2777 168.86 69.9444 168.251 67.4098C167.037 62.8155 168.996 58.5701 172.506 59.3827Z"
        fill="#407BFF" />
    <path d="M172.506 59.3827C175.939 60.1693 178.757 68.936 178.757 68.936L171.897 74.1815C170.116 72.2777 168.86 69.9444 168.251 67.4098C167.037 62.8155 168.996 58.5701 172.506 59.3827Z"
        fill="black"
        opacity="0.4" />
    <path
        d="M154.447 69.8373C153.593 70.7593 152.738 71.5823 151.842 72.4418C151.4 72.8585 150.952 73.2753 150.493 73.6764L149.801 74.2858L149.629 74.4369L149.332 74.6765C149.026 74.9206 148.688 75.1205 148.326 75.2703C147.924 75.441 147.492 75.5295 147.055 75.5308C146.682 75.5323 146.312 75.4671 145.961 75.338C145.573 75.1901 145.219 74.9651 144.92 74.6765C144.538 74.3035 144.258 73.8391 144.107 73.3273C144.028 73.0751 143.977 72.8147 143.956 72.5512C143.929 72.2427 143.929 71.9325 143.956 71.624C143.982 71.374 144.013 71.1552 144.055 70.952C144.198 70.2418 144.4 69.5448 144.659 68.8684C144.894 68.2256 145.163 67.596 145.467 66.9828C145.8 66.3212 146.118 65.8368 146.436 65.2846C147.726 63.1704 149.199 61.173 150.837 59.3151C152.459 57.4682 154.246 55.7734 156.176 54.252L158.093 56.2262C156.749 58.0285 155.426 59.961 154.202 61.8623C152.984 63.7528 151.871 65.7092 150.868 67.7224C150.644 68.2121 150.347 68.7643 150.207 69.1601C150.02 69.62 149.859 70.0895 149.722 70.5666C149.591 70.9962 149.492 71.435 149.425 71.8792C149.422 71.9487 149.422 72.0182 149.425 72.0876C149.425 72.1293 149.425 72.1501 149.425 72.0407C149.417 71.9238 149.394 71.8084 149.358 71.6969C149.245 71.3276 149.039 70.9938 148.759 70.728C148.51 70.4992 148.217 70.3221 147.899 70.2071C147.62 70.1012 147.323 70.0465 147.024 70.0457C146.737 70.0422 146.451 70.0971 146.185 70.2071C146.095 70.2439 146.008 70.2874 145.925 70.3374L146.123 70.1551L146.753 69.5821L147.998 68.4152C148.821 67.6391 149.649 66.8109 150.431 66.0399L154.447 69.8373Z"
        fill="#FF8B7B" />
    <path d="M169.564 65.8213C171.428 67.6653 172.038 71.0303 172.168 73.9473L171.866 74.1817C170.085 72.2779 168.829 69.9447 168.22 67.41C168.152 67.1392 168.089 66.8891 168.042 66.5922L169.564 65.8213Z"
        fill="black"
        opacity="0.2" />
    <path
        d="M150.806 63.0292C150.056 66.988 149.587 75.1193 151.759 91.2151H171.376C171.511 88.2095 169.621 73.5305 172.522 59.3568C170.354 58.9405 168.162 58.6639 165.959 58.5286C163.183 58.3694 160.4 58.3694 157.624 58.5286C156.707 58.6119 155.801 58.7474 155.02 58.888C153.981 59.0703 153.021 59.5638 152.269 60.3033C151.516 61.0428 151.006 61.9933 150.806 63.0292Z"
        fill="#407BFF" />
    <path d="M150.806 63.0292C150.056 66.988 149.587 75.1193 151.759 91.2151H171.376C171.511 88.2095 169.621 73.5305 172.522 59.3568C170.354 58.9405 168.162 58.6639 165.959 58.5286C163.183 58.3694 160.4 58.3694 157.624 58.5286C156.707 58.6119 155.801 58.7474 155.02 58.888C153.981 59.0703 153.021 59.5638 152.269 60.3033C151.516 61.0428 151.006 61.9933 150.806 63.0292Z"
        fill="black"
        opacity="0.4" />
    <path d="M153.806 68.8999L150.264 68.0508C150.155 70.1969 150.144 72.8535 150.301 76.1404C151.931 74.286 154.015 71.3898 153.806 68.8999Z"
        fill="black"
        opacity="0.2" />
    <path d="M157.307 175.945L157.494 180.32H161.161L160.974 175.945H157.307Z" fill="black"
        opacity="0.2" />
    <path d="M184.633 174.83L181.049 175.606L182.904 179.68L186.488 178.904L184.633 174.83Z"
        fill="black"
        opacity="0.2" />
    <path
        d="M166.651 46.4435C165.714 49.9544 165.339 52.0588 163.172 53.5173C159.916 55.7364 155.853 53.1944 155.749 49.4855C155.634 46.1362 157.192 40.9532 160.958 40.2448C161.786 40.0894 162.639 40.1474 163.438 40.4132C164.237 40.6791 164.955 41.144 165.525 41.7641C166.095 42.3843 166.497 43.1393 166.694 43.958C166.891 44.7766 166.876 45.632 166.651 46.4435Z"
        fill="#FF8B7B" />
    <path
        d="M158.432 46.5739C158.255 46.105 157.447 42.4744 158.208 41.5315C158.968 40.5887 167.641 41.2711 168.923 42.5317C171.053 44.6153 169.574 46.4905 167.246 48.9023C165.495 50.715 165.428 52.7569 164.542 53.0695C162.979 53.5904 160.594 53.1007 160.114 51.4495C159.635 49.7982 158.432 46.5739 158.432 46.5739Z"
        fill="#263238" />
    <path
        d="M167.87 38.401C164.807 37.0987 159.062 38.5416 155.957 37.7915C155.918 38.9459 156.297 40.0756 157.026 40.9718C157.755 41.8681 158.783 42.4703 159.921 42.6671C162.497 43.1579 165.113 43.4004 167.735 43.3912C171.142 43.2349 170.475 39.5105 167.87 38.401Z"
        fill="#263238" />
    <path
        d="M168.35 42.6409C169.468 42.751 170.595 42.5357 171.595 42.021C172.168 43.4066 169.016 43.7869 168.35 42.6409Z"
        fill="#263238" />
    <path
        d="M160.099 46.7197C160.028 47.6231 159.662 48.4781 159.057 49.1523C158.255 50.0327 157.421 49.4805 157.281 48.4127C157.156 47.4438 157.416 45.8082 158.395 45.3393C159.375 44.8705 160.166 45.6311 160.099 46.7197Z"
        fill="#FF8B7B" />
    <path
        d="M158.713 91.2306C158.713 91.2306 162.88 119.229 165.156 129.72C167.652 141.206 181.06 179.206 181.06 179.206L187.618 177.784C187.618 177.784 178.241 146.811 176.158 130.751C174.543 118.416 171.371 91.2202 171.371 91.2202L158.713 91.2306Z"
        fill="#407BFF" />
    <path
        d="M179.487 177.023C179.461 177.023 180.711 179.398 180.711 179.398L188.087 177.799L187.467 175.58L179.487 177.023Z"
        fill="#263238" />
    <path d="M161.344 101.206C166.152 102.149 165.641 120.078 165.063 129.303C163.677 122.782 161.646 110.238 160.26 101.336C160.596 101.17 160.978 101.124 161.344 101.206Z"
        fill="black"
        opacity="0.3" />
    <path
        d="M151.759 91.2308C151.759 91.2308 151.238 118.625 151.655 129.777C152.071 141.399 156.129 179.451 156.129 179.451H162.338C162.338 179.451 162.562 142.076 162.859 130.663C163.161 118.224 164.662 91.21 164.662 91.21L151.759 91.2308Z"
        fill="#407BFF" />
    <path
        d="M154.936 177.002C154.905 177.002 155.285 179.576 155.285 179.576H162.833L163.042 177.279L154.936 177.002Z"
        fill="#263238" />
    <path
        d="M158.484 64.2481C160.24 68.983 149.92 74.5619 149.92 74.5619L145.451 68.832C145.451 68.832 148.457 62.8833 152.103 60.2059C156.609 56.9034 157.145 60.6434 158.484 64.2481Z"
        fill="#407BFF" />
    <path d="M158.484 64.2481C160.24 68.983 149.92 74.5619 149.92 74.5619L145.451 68.832C145.451 68.832 148.457 62.8833 152.103 60.2059C156.609 56.9034 157.145 60.6434 158.484 64.2481Z"
        fill="black"
        opacity="0.4" />
    <path
        d="M198.916 28.3003C209.299 28.3003 217.716 22.9364 217.716 16.3196C217.716 9.70282 209.299 4.33887 198.916 4.33887C188.534 4.33887 180.117 9.70282 180.117 16.3196C180.117 22.9364 188.534 28.3003 198.916 28.3003Z"
        fill="#407BFF" />
    <path
        d="M192.134 22.3515C190.896 22.3475 189.698 21.9072 188.752 21.1079C187.806 20.3086 187.172 19.2015 186.962 17.9811C186.754 16.6592 187.053 15.3078 187.797 14.1958C188.541 13.0838 189.677 12.2929 190.978 11.9804C192.046 11.7343 193.163 11.8292 194.174 12.2515C195.185 12.6738 196.039 13.4024 196.614 14.3348L208.683 11.8449C209.147 11.7434 209.632 11.8205 210.042 12.0609C210.451 12.3014 210.755 12.6874 210.892 13.142C210.955 13.381 210.969 13.6303 210.932 13.8748C210.896 14.1193 210.81 14.3537 210.68 14.5639C210.55 14.774 210.378 14.9554 210.175 15.0969C209.973 15.2385 209.743 15.3372 209.501 15.3871L209.189 15.4496C209.142 15.4579 209.098 15.4768 209.06 15.5048C209.022 15.5328 208.991 15.5692 208.97 15.611C208.95 15.6536 208.941 15.6998 208.941 15.7465C208.941 15.7932 208.95 15.8394 208.97 15.8819L209.183 16.4341C209.255 16.613 209.262 16.8114 209.203 16.9949C209.144 17.1784 209.023 17.3356 208.86 17.4394C208.732 17.5185 208.624 17.6258 208.544 17.7531C208.463 17.8803 208.413 18.0243 208.397 18.1739C208.381 18.3456 208.312 18.5081 208.199 18.6381C208.086 18.7681 207.934 18.8591 207.766 18.8979L207.522 18.95C207.352 18.9814 207.177 18.9579 207.021 18.883C206.866 18.8081 206.738 18.6856 206.657 18.5333C206.549 18.3516 206.387 18.2082 206.193 18.123C206 18.0379 205.784 18.0152 205.577 18.0582C205.37 18.1012 205.182 18.2078 205.038 18.3629C204.895 18.5181 204.803 18.7143 204.776 18.924C204.762 19.0946 204.694 19.2562 204.581 19.3854C204.469 19.5146 204.318 19.6048 204.151 19.6428L203.907 19.6949C203.737 19.7254 203.562 19.7016 203.407 19.6268C203.251 19.5519 203.124 19.4299 203.042 19.2782C202.964 19.149 202.859 19.0383 202.734 18.9538C202.609 18.8692 202.467 18.8128 202.318 18.7885C202.118 18.7644 201.933 18.668 201.799 18.5175C201.664 18.3669 201.59 18.1725 201.589 17.9707V17.3769C201.586 17.3304 201.574 17.285 201.553 17.2437C201.532 17.2023 201.502 17.1661 201.465 17.1374C201.429 17.1087 201.386 17.0882 201.341 17.0774C201.296 17.0666 201.249 17.0657 201.203 17.0748L197.354 17.8666C197.197 18.933 196.715 19.9252 195.974 20.7081C195.233 21.4911 194.269 22.0267 193.213 22.2421C192.858 22.3147 192.496 22.3513 192.134 22.3515ZM191.092 12.4544C189.911 12.7304 188.878 13.4437 188.201 14.4509C187.525 15.458 187.255 16.6841 187.446 17.8822C187.651 18.9968 188.248 20.0014 189.129 20.7141C190.01 21.4268 191.118 21.8006 192.25 21.7678C193.383 21.7351 194.467 21.298 195.306 20.5356C196.144 19.7733 196.682 18.7359 196.822 17.6113V17.4238L201.068 16.5643C201.189 16.5348 201.316 16.5329 201.439 16.5585C201.562 16.5842 201.677 16.6368 201.777 16.7126C201.876 16.7885 201.958 16.8855 202.016 16.9968C202.073 17.1081 202.105 17.2308 202.109 17.3561V17.9499C202.111 18.0206 202.136 18.0887 202.182 18.1428C202.227 18.1969 202.29 18.2336 202.36 18.2468C202.587 18.2794 202.805 18.3635 202.995 18.4925C203.185 18.6216 203.344 18.7923 203.459 18.9917C203.486 19.0479 203.531 19.0941 203.586 19.124C203.641 19.1539 203.704 19.1659 203.766 19.1584L204.006 19.1063C204.066 19.0907 204.12 19.0559 204.16 19.0071C204.199 18.9583 204.222 18.8981 204.224 18.8354C204.257 18.5112 204.392 18.2057 204.61 17.9633C204.828 17.7208 205.117 17.5539 205.436 17.4866C205.755 17.4194 206.087 17.4552 206.384 17.5891C206.681 17.7229 206.928 17.9478 207.089 18.2312C207.116 18.287 207.159 18.333 207.214 18.3629C207.268 18.3928 207.33 18.405 207.391 18.3979L207.641 18.3458C207.701 18.3292 207.754 18.294 207.793 18.2453C207.831 18.1966 207.853 18.1369 207.855 18.0749C207.881 17.8462 207.958 17.6264 208.082 17.4323C208.206 17.2382 208.372 17.075 208.569 16.955C208.626 16.9136 208.668 16.8542 208.688 16.7862C208.708 16.7183 208.704 16.6457 208.678 16.5799L208.464 16.0278C208.42 15.9139 208.402 15.7918 208.409 15.67C208.417 15.5482 208.452 15.4295 208.51 15.3224C208.569 15.2152 208.65 15.1221 208.748 15.0496C208.847 14.9771 208.959 14.927 209.079 14.9026L209.397 14.8349C209.569 14.7982 209.732 14.7273 209.876 14.6262C210.019 14.5252 210.141 14.3962 210.234 14.2469C210.327 14.0976 210.389 13.9311 210.416 13.7573C210.443 13.5836 210.435 13.4062 210.392 13.2357C210.29 12.9079 210.068 12.6307 209.771 12.4597C209.473 12.2887 209.122 12.2365 208.787 12.3137L196.38 14.8922L196.286 14.7307C195.787 13.8433 195.013 13.1422 194.081 12.7334C193.149 12.3246 192.109 12.2303 191.118 12.4648L191.092 12.4544ZM192.134 20.4138C191.487 20.421 190.852 20.24 190.306 19.8929C189.66 19.4688 189.181 18.8338 188.951 18.0962C188.721 17.3586 188.754 16.5639 189.044 15.8478C189.334 15.1316 189.863 14.5383 190.542 14.1689C191.221 13.7995 192.007 13.677 192.766 13.8221C193.525 13.9673 194.21 14.3712 194.704 14.965C195.199 15.5587 195.472 16.3056 195.477 17.0783C195.483 17.851 195.22 18.6016 194.734 19.2023C194.248 19.8029 193.568 20.2163 192.811 20.3721C192.59 20.4122 192.365 20.4297 192.139 20.4242L192.134 20.4138ZM192.134 14.2619C191.94 14.263 191.747 14.2822 191.556 14.3192C191.193 14.3965 190.849 14.5445 190.543 14.7548C190.238 14.9651 189.976 15.2335 189.774 15.5448C189.572 15.8561 189.434 16.2041 189.366 16.5689C189.299 16.9338 189.304 17.3083 189.381 17.6712C189.459 18.0341 189.607 18.3782 189.817 18.6839C190.027 18.9896 190.296 19.2509 190.607 19.4528C190.918 19.6548 191.266 19.7934 191.631 19.8609C191.996 19.9283 192.37 19.9233 192.733 19.846C193.278 19.7326 193.777 19.4604 194.167 19.0638C194.558 18.6672 194.822 18.164 194.927 17.6175C195.031 17.0709 194.972 16.5057 194.756 15.9929C194.54 15.4801 194.177 15.0427 193.713 14.7359C193.251 14.4292 192.709 14.2678 192.155 14.2723L192.134 14.2619Z"
        fill="white" />
    <path d="M183.618 35.3272C187.03 35.3272 189.796 33.5641 189.796 31.3892C189.796 29.2143 187.03 27.4512 183.618 27.4512C180.206 27.4512 177.44 29.2143 177.44 31.3892C177.44 33.5641 180.206 35.3272 183.618 35.3272Z"
        fill="#407BFF"
        opacity="0.6" />
    <path d="M173.788 36.942C175.189 36.942 176.325 36.219 176.325 35.3272C176.325 34.4354 175.189 33.7124 173.788 33.7124C172.387 33.7124 171.251 34.4354 171.251 35.3272C171.251 36.219 172.387 36.942 173.788 36.942Z"
        fill="#407BFF"
        opacity="0.3" />
</svg>
